# xmcd
#
# Track frame offsets: 
#        225
#        16304
#        35719
#        47649
#        59196
#        73981
#        88578
#        108323
#        121112
#        131646
#        150863
#        166302
#        182566
#        200953
#        212429
#        224331
#
# Disc length: 3180 seconds
#
# Revision: 1
# Processed by: cddbd v1.5.2PL0 Copyright (c) Steve Scherf et al.
# Submitted via: ExactAudioCopy v0.95b4
#
DISCID=ea0c6910
DTITLE=Various Artist - Country  CD1
DYEAR=1900
DGENRE=Country
TTITLE0=Linda Ronstadt/Better Walk The Line
TTITLE1=Lucky/Born To Ride
TTITLE2=Tina Turner/Stand By Your Man
TTITLE3=Lynn Anderson/Listen To A Country Song
TTITLE4=Stray Cats/Jade Idol
TTITLE5=Matchbox/Rockabilly Rebel
TTITLE6=The Mavericks/Dance The Night Away
TTITLE7=Porter Wagoner/Satisfied Mind
TTITLE8=Johnny Preston/Cradle of Love
TTITLE9=Billy Swan/Don't Be Cruel
TTITLE10=Razzy Bailey/Your Cheatin Heart
TTITLE11=Boz Scaggs/Let It Happen
TTITLE12=Alabama/I Want To Be With You Tonight
TTITLE13=Doc Watson/He's Prayed To Go
TTITLE14=Patsy Cline/Walkin' After Midnight
TTITLE15=The Bellamy Brothers/If I Said You Had A Beautiful Body
EXTD=
EXTT0=
EXTT1=
EXTT2=
EXTT3=
EXTT4=
EXTT5=
EXTT6=
EXTT7=
EXTT8=
EXTT9=
EXTT10=
EXTT11=
EXTT12=
EXTT13=
EXTT14=
EXTT15=
PLAYORDER=
